<mxfile host="app.diagrams.net" modified="2023-03-20T10:00:31.247Z" agent="5.0 (Windows)" etag="-FDHi7Q2etVkWH2g9Bc7" version="21.0.8" type="github">
  <diagram name="Page-1" id="D85wF481ZXQB_z5sUJnP">
    <mxGraphModel dx="825" dy="521" grid="1" gridSize="10" guides="1" tooltips="1" connect="1" arrows="1" fold="1" page="1" pageScale="1" pageWidth="827" pageHeight="1169" math="0" shadow="0">
      <root>
        <mxCell id="0" />
        <mxCell id="1" parent="0" />
        <mxCell id="V_LeIEPWwIYWCwFNi-4K-13" value="&lt;b&gt;Subsidiary model, A&lt;br&gt;&lt;/b&gt;&lt;div&gt;&lt;font size=&quot;3&quot;&gt;&lt;b&gt;&lt;br&gt;&lt;/b&gt;&lt;/font&gt;&lt;/div&gt;&lt;div&gt;&lt;font size=&quot;3&quot;&gt;&lt;b&gt;&lt;br&gt;&lt;/b&gt;&lt;/font&gt;&lt;/div&gt;&lt;div&gt;&lt;font size=&quot;3&quot;&gt;&lt;b&gt;&lt;br&gt;&lt;/b&gt;&lt;/font&gt;&lt;/div&gt;&lt;div&gt;&lt;font size=&quot;3&quot;&gt;&lt;b&gt;&lt;br&gt;&lt;/b&gt;&lt;/font&gt;&lt;/div&gt;&lt;div&gt;&lt;font size=&quot;3&quot;&gt;&lt;b&gt;&lt;br&gt;&lt;/b&gt;&lt;/font&gt;&lt;/div&gt;&lt;div&gt;&lt;font size=&quot;3&quot;&gt;&lt;b&gt;&lt;br&gt;&lt;/b&gt;&lt;/font&gt;&lt;/div&gt;&lt;div&gt;&lt;font size=&quot;3&quot;&gt;&lt;b&gt;&lt;br&gt;&lt;/b&gt;&lt;/font&gt;&lt;/div&gt;&lt;div&gt;&lt;font size=&quot;3&quot;&gt;&lt;b&gt;&lt;br&gt;&lt;/b&gt;&lt;/font&gt;&lt;/div&gt;&lt;div&gt;&lt;font size=&quot;3&quot;&gt;&lt;b&gt;&lt;br&gt;&lt;/b&gt;&lt;/font&gt;&lt;/div&gt;&lt;div&gt;&lt;font size=&quot;3&quot;&gt;&lt;b&gt;&lt;br&gt;&lt;/b&gt;&lt;/font&gt;&lt;/div&gt;&lt;div&gt;&lt;font size=&quot;3&quot;&gt;&lt;b&gt;&lt;br&gt;&lt;/b&gt;&lt;/font&gt;&lt;/div&gt;&lt;div&gt;&lt;font size=&quot;3&quot;&gt;&lt;b&gt;&lt;br&gt;&lt;/b&gt;&lt;/font&gt;&lt;/div&gt;" style="rounded=0;whiteSpace=wrap;html=1;fillColor=#F8CECC;" vertex="1" parent="1">
          <mxGeometry x="390" y="50" width="180" height="290" as="geometry" />
        </mxCell>
        <mxCell id="V_LeIEPWwIYWCwFNi-4K-14" value="Parent model" style="shape=process;whiteSpace=wrap;html=1;backgroundOutline=1;fillColor=#FFE599;" vertex="1" parent="1">
          <mxGeometry x="410" y="100" width="140" height="40" as="geometry" />
        </mxCell>
        <mxCell id="V_LeIEPWwIYWCwFNi-4K-15" value="k-Child model" style="shape=process;whiteSpace=wrap;html=1;backgroundOutline=1;fillColor=#FFF2CC;" vertex="1" parent="1">
          <mxGeometry x="428.5" y="160" width="103" height="40" as="geometry" />
        </mxCell>
        <mxCell id="V_LeIEPWwIYWCwFNi-4K-7" style="edgeStyle=orthogonalEdgeStyle;rounded=0;orthogonalLoop=1;jettySize=auto;html=1;" edge="1" parent="1" source="V_LeIEPWwIYWCwFNi-4K-1" target="V_LeIEPWwIYWCwFNi-4K-2">
          <mxGeometry relative="1" as="geometry">
            <Array as="points">
              <mxPoint x="180" y="180" />
            </Array>
          </mxGeometry>
        </mxCell>
        <mxCell id="V_LeIEPWwIYWCwFNi-4K-9" style="edgeStyle=orthogonalEdgeStyle;rounded=0;orthogonalLoop=1;jettySize=auto;html=1;" edge="1" parent="1" source="V_LeIEPWwIYWCwFNi-4K-1" target="V_LeIEPWwIYWCwFNi-4K-6">
          <mxGeometry relative="1" as="geometry">
            <Array as="points">
              <mxPoint x="180" y="300" />
            </Array>
          </mxGeometry>
        </mxCell>
        <mxCell id="V_LeIEPWwIYWCwFNi-4K-11" value="" style="edgeStyle=orthogonalEdgeStyle;rounded=0;orthogonalLoop=1;jettySize=auto;html=1;" edge="1" parent="1" source="V_LeIEPWwIYWCwFNi-4K-1" target="V_LeIEPWwIYWCwFNi-4K-5">
          <mxGeometry relative="1" as="geometry">
            <Array as="points">
              <mxPoint x="180" y="240" />
            </Array>
          </mxGeometry>
        </mxCell>
        <mxCell id="V_LeIEPWwIYWCwFNi-4K-19" value="" style="edgeStyle=orthogonalEdgeStyle;rounded=0;orthogonalLoop=1;jettySize=auto;html=1;" edge="1" parent="1" source="V_LeIEPWwIYWCwFNi-4K-1" target="V_LeIEPWwIYWCwFNi-4K-14">
          <mxGeometry relative="1" as="geometry" />
        </mxCell>
        <mxCell id="V_LeIEPWwIYWCwFNi-4K-1" value="Training data" style="rounded=1;whiteSpace=wrap;html=1;fillColor=#CDA2BE;" vertex="1" parent="1">
          <mxGeometry x="150" y="100" width="200" height="40" as="geometry" />
        </mxCell>
        <mxCell id="V_LeIEPWwIYWCwFNi-4K-20" value="" style="edgeStyle=orthogonalEdgeStyle;rounded=0;orthogonalLoop=1;jettySize=auto;html=1;entryX=0;entryY=0.5;entryDx=0;entryDy=0;" edge="1" parent="1" source="V_LeIEPWwIYWCwFNi-4K-2" target="V_LeIEPWwIYWCwFNi-4K-15">
          <mxGeometry relative="1" as="geometry" />
        </mxCell>
        <mxCell id="V_LeIEPWwIYWCwFNi-4K-2" value="k-fold" style="rounded=1;whiteSpace=wrap;html=1;fillColor=#E6D0DE;" vertex="1" parent="1">
          <mxGeometry x="200" y="160" width="100" height="40" as="geometry" />
        </mxCell>
        <mxCell id="V_LeIEPWwIYWCwFNi-4K-21" value="" style="edgeStyle=orthogonalEdgeStyle;rounded=0;orthogonalLoop=1;jettySize=auto;html=1;entryX=0;entryY=0.5;entryDx=0;entryDy=0;" edge="1" parent="1" source="V_LeIEPWwIYWCwFNi-4K-5" target="V_LeIEPWwIYWCwFNi-4K-30">
          <mxGeometry relative="1" as="geometry">
            <mxPoint x="437.0000000000001" y="240" as="targetPoint" />
          </mxGeometry>
        </mxCell>
        <mxCell id="V_LeIEPWwIYWCwFNi-4K-5" value="k-fold" style="rounded=1;whiteSpace=wrap;html=1;fillColor=#E6D0DE;" vertex="1" parent="1">
          <mxGeometry x="200" y="220" width="100" height="40" as="geometry" />
        </mxCell>
        <mxCell id="V_LeIEPWwIYWCwFNi-4K-22" style="edgeStyle=orthogonalEdgeStyle;rounded=0;orthogonalLoop=1;jettySize=auto;html=1;entryX=0;entryY=0.5;entryDx=0;entryDy=0;" edge="1" parent="1" source="V_LeIEPWwIYWCwFNi-4K-6" target="V_LeIEPWwIYWCwFNi-4K-31">
          <mxGeometry relative="1" as="geometry">
            <mxPoint x="430" y="300" as="targetPoint" />
          </mxGeometry>
        </mxCell>
        <mxCell id="V_LeIEPWwIYWCwFNi-4K-6" value="k-fold" style="rounded=1;whiteSpace=wrap;html=1;fillColor=#E6D0DE;" vertex="1" parent="1">
          <mxGeometry x="200" y="280" width="100" height="40" as="geometry" />
        </mxCell>
        <mxCell id="V_LeIEPWwIYWCwFNi-4K-25" value="&lt;font style=&quot;font-size: 9px;&quot;&gt;N&amp;nbsp; observations&lt;/font&gt;" style="text;html=1;strokeColor=none;fillColor=none;align=center;verticalAlign=middle;whiteSpace=wrap;rounded=0;" vertex="1" parent="1">
          <mxGeometry x="205" y="140" width="90" height="10" as="geometry" />
        </mxCell>
        <mxCell id="V_LeIEPWwIYWCwFNi-4K-26" value="&lt;font style=&quot;font-size: 9px;&quot;&gt;N/k&amp;nbsp; observations&lt;/font&gt;" style="text;html=1;strokeColor=none;fillColor=none;align=center;verticalAlign=middle;whiteSpace=wrap;rounded=0;" vertex="1" parent="1">
          <mxGeometry x="205" y="200" width="90" height="10" as="geometry" />
        </mxCell>
        <mxCell id="V_LeIEPWwIYWCwFNi-4K-27" value="&lt;font style=&quot;font-size: 9px;&quot;&gt;N/k&amp;nbsp; observations&lt;/font&gt;" style="text;html=1;strokeColor=none;fillColor=none;align=center;verticalAlign=middle;whiteSpace=wrap;rounded=0;" vertex="1" parent="1">
          <mxGeometry x="205" y="260" width="90" height="10" as="geometry" />
        </mxCell>
        <mxCell id="V_LeIEPWwIYWCwFNi-4K-30" value="k-Child model" style="shape=process;whiteSpace=wrap;html=1;backgroundOutline=1;fillColor=#FFF2CC;" vertex="1" parent="1">
          <mxGeometry x="428.5" y="220" width="103" height="40" as="geometry" />
        </mxCell>
        <mxCell id="V_LeIEPWwIYWCwFNi-4K-31" value="k-Child model" style="shape=process;whiteSpace=wrap;html=1;backgroundOutline=1;fillColor=#FFF2CC;" vertex="1" parent="1">
          <mxGeometry x="428.5" y="280" width="103" height="40" as="geometry" />
        </mxCell>
      </root>
    </mxGraphModel>
  </diagram>
</mxfile>
